<?xml version="1.0" encoding="utf-8"?>
<!-- Generator: Adobe Illustrator 19.0.0, SVG Export Plug-In . SVG Version: 6.00 Build 0)  -->
<svg version="1.1" id="Camada_1" xmlns="http://www.w3.org/2000/svg" xmlns:xlink="http://www.w3.org/1999/xlink" x="0px" y="0px"
	 viewBox="-296 249.8 17.2 21.2" style="enable-background:new -296 249.8 17.2 21.2;" xml:space="preserve">
<style type="text/css">
	.st0{fill:#894949;}
</style>
<g id="XMLID_2_">
	<g id="XMLID_149_">
		<g id="XMLID_155_">
			<path id="XMLID_156_" class="st0" d="M-287.4,271c-4.7,0-8.6-3.9-8.6-8.6c0-4.7,3.9-8.6,8.6-8.6c4.7,0,8.6,3.9,8.6,8.6
				C-278.8,267.1-282.6,271-287.4,271z M-287.4,254.6c-4.3,0-7.8,3.5-7.8,7.8c0,4.3,3.5,7.8,7.8,7.8c4.3,0,7.8-3.5,7.8-7.8
				C-279.6,258.1-283.1,254.6-287.4,254.6z"/>
		</g>
		<path id="XMLID_154_" class="st0" d="M-285.1,252.3h-4.5c-0.6,0-1-0.5-1-1v-0.5c0-0.6,0.5-1,1-1h4.6c0.6,0,1,0.5,1,1v0.5
			C-284,251.9-284.5,252.3-285.1,252.3z"/>
		<rect id="XMLID_153_" x="-288.8" y="251.6" class="st0" width="2.8" height="2.5"/>
		<path id="XMLID_150_" class="st0" d="M-287.5,256.3c-3.3,0-6,2.7-6,6c0,3.3,2.7,6,6,6s6-2.7,6-6
			C-281.5,259-284.2,256.3-287.5,256.3z M-287.5,267v-4.7v-4.7c2.6,0,4.7,2.1,4.7,4.7C-282.7,264.9-284.9,267-287.5,267z"/>
	</g>
</g>
</svg>
