<?xml version="1.0" standalone="no"?>
<!DOCTYPE svg PUBLIC "-//W3C//DTD SVG 20010904//EN"
 "http://www.w3.org/TR/2001/REC-SVG-20010904/DTD/svg10.dtd">
<svg version="1.0" xmlns="http://www.w3.org/2000/svg"
 width="916.000000pt" height="916.000000pt" viewBox="0 0 916.000000 916.000000"
 preserveAspectRatio="xMidYMid meet">
<metadata>
Created by potrace 1.11, written by Peter Selinger 2001-2013
</metadata>
<g transform="translate(0.000000,916.000000) scale(0.100000,-0.100000)"
fill="#000000" stroke="none">
<path d="M4380 9009 c-381 -17 -713 -71 -1065 -174 -741 -218 -1411 -628
-1951 -1195 -577 -607 -967 -1359 -1129 -2181 -108 -549 -109 -1144 -4 -1689
232 -1202 951 -2251 1989 -2903 1105 -694 2456 -861 3705 -457 918 296 1717
893 2269 1693 359 522 612 1137 711 1735 55 333 59 386 59 767 0 382 -4 439
-59 767 -112 664 -403 1332 -821 1885 -311 412 -676 753 -1109 1037 -173 114
-256 161 -460 264 -528 263 -1142 424 -1715 447 -74 3 -162 7 -195 9 -33 1
-134 0 -225 -5z m1020 -1588 c312 -46 602 -153 860 -314 117 -74 223 -159 343
-276 351 -343 548 -752 629 -1306 19 -135 16 -511 -5 -659 -54 -362 -148 -671
-298 -981 -460 -953 -1365 -1691 -2349 -1919 -207 -47 -348 -66 -571 -73 -440
-14 -814 65 -1172 249 -422 217 -770 591 -955 1028 -134 318 -205 719 -188
1065 51 1008 609 1972 1513 2613 466 331 1018 537 1581 592 136 14 459 3 612
-19z"/>
<path d="M5569 6139 l-744 -751 -6 81 c-8 102 -24 128 -173 276 -146 146 -408
385 -422 385 -5 0 -16 -42 -23 -92 -7 -51 -15 -105 -18 -120 l-5 -27 -82 51
c-44 28 -92 58 -105 67 l-24 15 7 -194 c14 -385 25 -523 46 -591 36 -117 122
-236 240 -332 l45 -36 -145 -148 c-80 -81 -444 -448 -810 -815 l-665 -668 48
-47 47 -48 -91 -91 -90 -91 63 -59 c199 -186 465 -337 744 -422 530 -163 1123
-108 1699 158 450 207 907 595 1215 1030 264 374 448 816 510 1230 28 184 45
623 30 785 -34 384 -137 685 -329 961 -66 96 -194 244 -211 244 -4 0 -342
-338 -751 -751z"/>
</g>
</svg>
