<?xml version="1.0" standalone="no"?>
<!DOCTYPE svg PUBLIC "-//W3C//DTD SVG 20010904//EN"
 "http://www.w3.org/TR/2001/REC-SVG-20010904/DTD/svg10.dtd">
<svg version="1.0" xmlns="http://www.w3.org/2000/svg"
 width="4503.000000pt" height="4503.000000pt" viewBox="0 0 4503.000000 4503.000000"
 preserveAspectRatio="xMidYMid meet">
<metadata>
Created by potrace 1.11, written by Peter Selinger 2001-2013
</metadata>
<g transform="translate(0.000000,4503.000000) scale(0.100000,-0.100000)"
fill="#000000" stroke="none">
<path d="M21965 43013 c-3296 -96 -6441 -983 -9300 -2623 -3426 -1966 -6273
-4989 -8059 -8558 -1696 -3390 -2432 -7112 -2160 -10932 164 -2312 714 -4586
1624 -6710 306 -716 716 -1538 1094 -2194 761 -1320 1636 -2511 2700 -3676
367 -401 1085 -1102 1536 -1501 2786 -2459 6211 -4095 9847 -4703 739 -124
1423 -197 2308 -248 299 -18 1622 -17 1920 0 1470 85 2639 261 3930 592 4321
1106 8168 3662 10941 7270 1044 1358 1924 2862 2604 4450 917 2141 1464 4403
1630 6735 36 515 42 666 47 1318 7 807 -9 1286 -68 1987 -339 4091 -1889 8006
-4438 11205 -784 984 -1708 1945 -2661 2766 -1904 1641 -4071 2895 -6445 3729
-2090 734 -4329 1109 -6560 1098 -220 -1 -440 -3 -490 -5z m6375 -4133 c438
-1796 484 -1976 720 -2775 167 -565 225 -805 370 -1520 343 -1693 517 -3112
480 -3902 -6 -115 -19 -307 -31 -428 -112 -1216 -360 -2207 -734 -2940 -134
-262 -229 -410 -489 -759 l-155 -208 117 -132 c631 -704 1185 -1490 1686
-2391 149 -268 435 -844 564 -1135 55 -124 148 -347 208 -497 68 -169 115
-273 124 -276 11 -3 41 -86 94 -262 44 -143 85 -270 92 -284 8 -14 29 -84 49
-156 l35 -129 182 -177 c970 -937 1658 -2164 2007 -3576 109 -442 179 -878
223 -1388 18 -204 18 -1056 0 -1265 -97 -1154 -375 -2156 -861 -3105 -139
-272 -249 -459 -426 -725 l-142 -215 -48 -165 c-220 -766 -526 -1469 -903
-2072 -344 -550 -797 -1054 -1264 -1404 -353 -264 -725 -458 -1074 -559 -186
-54 -500 -85 -934 -92 -696 -11 -1299 63 -1885 232 -312 90 -562 200 -885 390
-1603 938 -3909 2574 -7475 5304 -3129 2395 -4946 3945 -6201 5292 -600 643
-1075 1290 -1309 1782 -158 332 -324 848 -429 1332 -105 487 -156 965 -156
1477 0 885 154 1667 478 2428 526 1234 1400 2409 2439 3277 1118 934 2470
1542 3913 1758 358 53 1016 119 1510 150 592 37 911 40 2090 21 l85 -1 3 55
c6 117 33 362 62 559 86 576 105 693 145 896 317 1583 1051 2765 2300 3708
545 411 1142 739 1924 1057 1043 423 1604 831 1906 1384 26 48 96 192 156 319
230 487 1134 2366 1136 2359 1 -4 138 -563 303 -1242z"/>
<path d="M27623 38212 c-144 -301 -298 -623 -342 -717 -139 -296 -237 -462
-378 -636 -387 -480 -978 -856 -1981 -1260 -1761 -711 -2945 -1809 -3534
-3279 -204 -510 -315 -967 -437 -1810 -75 -519 -78 -549 -93 -917 -12 -295
-12 -303 -32 -303 -12 0 -111 7 -221 15 -416 29 -781 38 -1370 32 -319 -3
-659 -11 -755 -16 -1524 -92 -2334 -228 -3163 -532 -841 -308 -1605 -757
-2302 -1354 -825 -707 -1569 -1668 -2050 -2650 -346 -707 -514 -1291 -592
-2065 -22 -221 -25 -889 -5 -1105 51 -538 152 -1035 309 -1520 151 -464 265
-704 508 -1070 339 -511 779 -1019 1491 -1725 1201 -1190 2866 -2582 5494
-4596 3600 -2759 6070 -4511 7586 -5382 309 -177 526 -263 899 -356 426 -106
825 -154 1340 -163 461 -8 843 19 1042 73 457 123 1045 511 1469 970 661 716
1132 1613 1478 2819 47 163 57 187 103 250 236 326 493 773 672 1167 358 791
569 1601 657 2528 21 226 30 921 15 1172 -55 905 -244 1740 -576 2543 -91 223
-324 687 -444 887 -316 527 -631 930 -1042 1333 -90 88 -194 186 -230 218 -64
55 -66 59 -94 149 -280 928 -732 1978 -1225 2842 -548 962 -1118 1725 -1888
2528 l-44 46 112 133 c102 120 382 488 501 659 473 675 816 1878 928 3260 30
366 33 500 21 780 -35 816 -182 1880 -441 3190 -155 783 -222 1063 -404 1680
-211 715 -313 1106 -635 2433 -40 163 -75 297 -79 297 -3 0 -124 -246 -268
-548z m176 -1182 c94 -367 181 -680 316 -1135 167 -567 226 -809 369 -1525
325 -1627 490 -2973 447 -3655 -74 -1171 -306 -2202 -652 -2895 -105 -209
-173 -316 -389 -606 -221 -297 -325 -421 -509 -604 -190 -189 -366 -332 -611
-495 -224 -149 -385 -241 -675 -387 -273 -137 -413 -192 -1321 -523 -1345
-490 -1701 -644 -2109 -912 -228 -150 -573 -401 -810 -590 l-60 -48 86 100
c914 1068 1958 2442 2709 3565 649 971 1118 1788 1448 2520 39 85 126 277 195
425 108 234 232 538 367 900 35 92 48 127 71 180 33 77 115 307 157 445 28 91
88 282 132 425 107 342 151 502 253 910 96 384 217 974 277 1357 37 236 94
697 87 704 -1 2 -13 -52 -26 -119 -105 -543 -278 -1221 -476 -1867 -139 -455
-143 -466 -320 -965 -181 -508 -175 -492 -438 -1125 -292 -702 -698 -1538
-1045 -2150 -600 -1061 -1601 -2549 -2822 -4200 -472 -638 -1061 -1422 -1066
-1418 -2 2 24 69 57 148 182 436 305 830 370 1185 27 150 37 543 20 777 -30
393 -155 1313 -236 1728 -36 184 -65 378 -114 775 -111 888 -137 1589 -76
2090 23 188 102 722 136 915 187 1074 562 1884 1210 2617 527 594 1323 1138
2219 1516 85 36 259 109 385 162 308 129 709 329 933 464 335 201 570 379 798
606 237 235 408 471 563 778 47 92 86 166 87 164 1 -1 29 -108 63 -237z
m-7399 -8084 c280 -18 614 -44 648 -51 19 -5 22 -12 22 -58 0 -116 56 -622
105 -947 40 -260 97 -586 194 -1105 204 -1087 245 -1378 244 -1740 0 -160 -5
-224 -22 -320 -68 -381 -216 -829 -444 -1345 -95 -217 -312 -654 -427 -860
-44 -79 -80 -146 -80 -148 0 -3 33 26 73 64 312 296 1320 1131 1683 1394 677
492 864 581 2504 1180 995 364 1387 523 1797 728 291 146 494 271 663 407 44
36 84 65 89 65 10 0 282 -277 432 -440 646 -703 1217 -1513 1719 -2439 117
-217 379 -750 474 -966 189 -426 381 -935 501 -1320 30 -99 71 -229 89 -290
156 -503 277 -1010 340 -1425 25 -160 92 -707 118 -960 20 -188 16 -722 -5
-940 -87 -863 -261 -1639 -549 -2449 -97 -273 -244 -659 -306 -801 -179 -412
-779 -1449 -1215 -2100 -140 -208 -624 -837 -920 -1194 -64 -77 -113 -144
-110 -150 3 -6 2 -8 -2 -3 -9 8 -45 -20 -45 -35 0 -5 -16 -23 -35 -40 -20 -17
-33 -33 -31 -36 3 -3 -8 -21 -24 -42 -38 -48 -116 -180 -147 -249 -114 -257
-166 -515 -166 -826 0 -403 92 -756 286 -1099 214 -379 584 -782 954 -1039 40
-28 70 -54 65 -58 -4 -4 -83 -15 -177 -26 -211 -22 -937 -26 -1095 -5 -52 6
-167 21 -255 32 -416 51 -837 157 -1121 283 -244 108 -1027 589 -1806 1109
-1498 999 -3669 2589 -6298 4612 -4100 3154 -6217 5142 -6839 6421 -165 339
-346 950 -426 1435 -14 85 -29 178 -35 205 -18 90 -39 336 -51 574 -29 583 49
1246 211 1797 240 821 808 1809 1502 2610 650 752 1404 1345 2248 1768 484
242 913 401 1432 532 422 106 839 169 1533 234 380 35 575 47 1165 74 203 9
1313 -4 1540 -18z m10874 -11346 c45 -395 57 -567 63 -905 11 -631 -31 -1123
-138 -1644 -118 -569 -320 -1225 -550 -1781 -78 -190 -301 -642 -416 -845
-171 -301 -477 -774 -672 -1040 -467 -638 -667 -942 -740 -1127 -120 -300
-127 -739 -15 -959 37 -74 75 -130 84 -124 4 3 34 -27 65 -65 198 -242 391
-333 700 -332 211 1 372 60 497 179 257 248 553 700 778 1193 l57 125 160 161
c87 88 208 219 269 289 60 71 119 140 131 154 19 23 17 8 -23 -129 -361 -1249
-946 -2245 -1681 -2861 -271 -228 -583 -414 -847 -505 l-107 -37 -47 33 c-69
49 -232 181 -349 282 -188 163 -399 394 -388 427 3 9 -20 50 -56 101 -126 175
-247 401 -307 570 -185 525 -164 1125 53 1575 67 138 112 202 251 357 412 459
834 1007 1225 1590 76 114 139 209 139 212 0 3 51 83 114 178 886 1350 1419
2682 1610 4021 54 373 75 685 77 1102 l1 290 18 -130 c11 -71 30 -231 44 -355z"/>
</g>
</svg>
