<?xml version="1.0" encoding="utf-8"?>
<!-- Generator: Adobe Illustrator 19.0.0, SVG Export Plug-In . SVG Version: 6.00 Build 0)  -->
<svg version="1.1" id="Camada_1" xmlns="http://www.w3.org/2000/svg" xmlns:xlink="http://www.w3.org/1999/xlink" x="0px" y="0px"
	 viewBox="0 0 17.2 21.2" style="enable-background:new 0 0 17.2 21.2;" xml:space="preserve">
<style type="text/css">
	.st0{fill:#6B6B6B;}
</style>
<g id="XMLID_2_">
	<g id="XMLID_149_">
		<g id="XMLID_155_">
			<path id="XMLID_156_" class="st0" d="M8.6,21.2c-4.7,0-8.6-3.9-8.6-8.6S3.9,4,8.6,4c4.7,0,8.6,3.9,8.6,8.6S13.4,21.2,8.6,21.2z
				 M8.6,4.8c-4.3,0-7.8,3.5-7.8,7.8s3.5,7.8,7.8,7.8c4.3,0,7.8-3.5,7.8-7.8S12.9,4.8,8.6,4.8z"/>
		</g>
		<path id="XMLID_154_" class="st0" d="M10.9,2.5H6.4c-0.6,0-1-0.5-1-1V1c0-0.6,0.5-1,1-1l4.6,0c0.6,0,1,0.5,1,1v0.5
			C12,2.1,11.5,2.5,10.9,2.5z"/>
		<rect id="XMLID_153_" x="7.2" y="1.8" class="st0" width="2.8" height="2.5"/>
		<path id="XMLID_150_" class="st0" d="M8.5,6.5c-3.3,0-6,2.7-6,6c0,3.3,2.7,6,6,6s6-2.7,6-6C14.5,9.2,11.8,6.5,8.5,6.5z M8.5,12.5
			V7.8c1.1,0,2.2,0.4,3,1.1L8.5,12.5z"/>
	</g>
</g>
</svg>
