<svg xmlns="http://www.w3.org/2000/svg" viewBox="0 0 327 525"><path d="M302,474H26c-6.6,0-12-5.4-12-12V26 c0-6.6,5.4-12,12-12h276c6.6,0,12,5.4,12,12v436C314,468.6,308.6,474,302,474z" fill="#F5F5F5" stroke="#DBDBDB" stroke-width=".6" stroke-miterlimit="10"/><path d="M31 29h270v203H31zm0 210.3h119.3v16H31zm0 32h244.7V288H31zm0 25.4h169v16.7H31zm0 30.6h63.3V344H31zm0 37.4h270v16.7H31zm0 26h270v16.7H31zm75.3-63.4h63.3V344h-63.3z" fill="#EDEDED"/><path d="M117.3 428.7H216" fill="none" stroke="#DBDBDB" stroke-miterlimit="10"/></svg>