<?xml version="1.0" encoding="utf-8"?>
<!-- Generator: Adobe Illustrator 19.0.0, SVG Export Plug-In . SVG Version: 6.00 Build 0)  -->
<svg version="1.1" id="Camada_1" xmlns="http://www.w3.org/2000/svg" xmlns:xlink="http://www.w3.org/1999/xlink" x="0px" y="0px"
	 viewBox="0 0 37.6 34.3" style="enable-background:new 0 0 37.6 34.3;" xml:space="preserve">
<style type="text/css">
	.st0{fill:#FAB00F;}
</style>
<g id="XMLID_28_">
	<path id="XMLID_29_" class="st0" d="M31.3,34.3H6.4c-0.3,0-0.6-0.3-0.6-0.6V18.5c0-0.3-0.3-0.6-0.6-0.6h-4c-0.5,0-0.8-0.7-0.4-1
		L18.2,0.7c0.2-0.2,0.6-0.2,0.8,0l17.9,16.2c0.4,0.4,0.1,1-0.4,1h-4c-0.3,0-0.6,0.3-0.6,0.6v15.2C31.9,34,31.6,34.3,31.3,34.3z
		 M9.2,31.5h19.4c0.3,0,0.6-0.3,0.6-0.6V15.8c0-0.3,0.3-0.6,0.6-0.6h1.2L19,4.4c-0.2-0.2-0.6-0.2-0.8,0L6.7,15.2H8
		c0.3,0,0.6,0.3,0.6,0.6v15.2C8.6,31.3,8.8,31.5,9.2,31.5z"/>
</g>
</svg>
