<?xml version="1.0" encoding="utf-8"?>
<!-- Generator: Adobe Illustrator 19.0.0, SVG Export Plug-In . SVG Version: 6.00 Build 0)  -->
<svg version="1.1" id="Camada_1" xmlns="http://www.w3.org/2000/svg" xmlns:xlink="http://www.w3.org/1999/xlink" x="0px" y="0px"
	 viewBox="-292 249.8 25.5 21.2" style="enable-background:new -292 249.8 25.5 21.2;" xml:space="preserve">
<style type="text/css">
	.st0{fill:#F2150B;}
	.st1{fill:none;stroke:#F2150B;stroke-linecap:round;stroke-miterlimit:10;}
</style>
<g id="XMLID_2_">
	<g>
		<g id="XMLID_80_">
			<path id="XMLID_81_" class="st0" d="M-277.6,270.8c-4.8,0-8-3.8-7.1-8.5s5.6-8.4,10.4-8.4s8,3.8,7.1,8.5
				S-272.8,270.8-277.6,270.8z M-274.5,254.7c-4.4,0-8.7,3.4-9.5,7.7s2.1,7.7,6.5,7.7s8.7-3.4,9.5-7.7S-270.1,254.7-274.5,254.7z"/>
		</g>
		<path id="XMLID_77_" class="st0" d="M-274.9,256.4c-3.4,0-6.6,2.6-7.3,5.9c-0.6,3.2,1.6,5.9,5,5.9s6.6-2.6,7.3-5.9
			C-269.3,259.1-271.6,256.4-274.9,256.4z M-276.1,262.6l-4.2-1.9c1-1.9,3.1-3.2,5.2-3.2L-276.1,262.6z"/>
		<path id="XMLID_76_" class="st0" d="M-271.7,252.5h-4.7c-0.6,0-1-0.5-0.9-1l0.1-0.5c0.1-0.6,0.7-1,1.3-1h4.7c0.6,0,1,0.5,0.9,1
			l-0.1,0.5C-270.5,252.1-271.1,252.5-271.7,252.5z"/>
		<polygon id="XMLID_75_" class="st0" points="-272.9,254.2 -275.8,254.2 -275.3,251.8 -272.4,251.8 		"/>
	</g>
</g>
<line class="st1" x1="-291.5" y1="267.2" x2="-286.6" y2="267.2"/>
<line class="st1" x1="-291.3" y1="261.7" x2="-286.5" y2="261.7"/>
<line class="st1" x1="-291" y1="256.1" x2="-286.1" y2="256.1"/>
</svg>
