<?xml version="1.0" encoding="utf-8"?>
<!-- Generator: Adobe Illustrator 19.0.0, SVG Export Plug-In . SVG Version: 6.00 Build 0)  -->
<svg version="1.1" id="Camada_1" xmlns="http://www.w3.org/2000/svg" xmlns:xlink="http://www.w3.org/1999/xlink" x="0px" y="0px"
	 viewBox="-296 249.8 17.2 21.2" style="enable-background:new -296 249.8 17.2 21.2;" xml:space="preserve">
<style type="text/css">
	.st0{fill:#F2150B;}
</style>
<g id="XMLID_2_">
	<g>
		<g id="XMLID_80_">
			<path id="XMLID_81_" class="st0" d="M-287.4,271c-4.7,0-8.6-3.9-8.6-8.6c0-4.7,3.9-8.6,8.6-8.6c4.7,0,8.6,3.9,8.6,8.6
				C-278.8,267.1-282.7,271-287.4,271z M-287.4,254.6c-4.3,0-7.8,3.5-7.8,7.8c0,4.3,3.5,7.8,7.8,7.8c4.3,0,7.8-3.5,7.8-7.8
				C-279.6,258.1-283.1,254.6-287.4,254.6z"/>
		</g>
		<path id="XMLID_77_" class="st0" d="M-287.5,256.3c-3.3,0-6,2.7-6,6c0,3.3,2.7,6,6,6c3.3,0,6-2.7,6-6
			C-281.5,259-284.2,256.3-287.5,256.3z M-287.5,262.7l-4.4-1.9c0.6-1.9,2.4-3.3,4.4-3.3V262.7z"/>
		<path id="XMLID_76_" class="st0" d="M-285.1,252.4h-4.6c-0.6,0-1-0.5-1-1v-0.5c0-0.6,0.5-1,1-1h4.6c0.6,0,1,0.5,1,1v0.5
			C-284,251.9-284.5,252.4-285.1,252.4z"/>
		<rect id="XMLID_75_" x="-288.8" y="251.6" class="st0" width="2.8" height="2.5"/>
	</g>
</g>
</svg>
