<svg xmlns="http://www.w3.org/2000/svg" viewBox="0 0 608 217.8"><g stroke="#d9d9d9"><g stroke-miterlimit="3"><path vector-effect="non-scaling-stroke" d="M438.6 217.3H.5V.5h438.2c0 15.5 12.7 28.1 28.3 28.1S495.3 16 495.3.5h112.3v216.8H495.2c0-15.5-12.7-28.1-28.3-28.1s-28.3 12.6-28.3 28.1z" fill="#fbfbf2"/><path vector-effect="non-scaling-stroke" d="M438.6 217.3H.5V.5h438.2c0 15.5 12.7 28.1 28.3 28.1v160.5c-15.7.1-28.4 12.7-28.4 28.2z" fill="#fff"/></g><g stroke-miterlimit="2"><path d="M.5.5h54.1v216.8H.5z" vector-effect="non-scaling-stroke" fill="#fff"/><path d="M.5.5H14v216.8H.5z" vector-effect="non-scaling-stroke" fill="#fbfbf2"/></g></g><g stroke-linecap="square" fill="none" stroke-miterlimit="3"><path d="M76.8 28.5h109.6" vector-effect="non-scaling-stroke" stroke="#c6c6c6"/><path d="M304 28.5h116.5" vector-effect="non-scaling-stroke" stroke="#bfbfbf"/></g><circle vector-effect="non-scaling-stroke" cx="247.7" cy="28.5" r="4" fill="#d2d2d2"/></svg>